<svg data-v-fde0c5aa="" xmlns="http://www.w3.org/2000/svg" viewBox="0 0 300 300" class="iconLeftSlogan"><!----><defs data-v-fde0c5aa=""><!----></defs><rect data-v-fde0c5aa="" fill="transparent" x="0" y="0" width="300px" height="300px" class="logo-background-square"></rect><defs data-v-fde0c5aa=""><!----></defs><g data-v-fde0c5aa="" id="6095c8ac-dc08-45e4-b1a0-a4e1c47b77c5" fill="#000000" transform="matrix(2.2754926681518555,0,0,2.2754926681518555,101.76222832052578,120.40800821988395)"><path d="M2.94 9.90L4.41 9.90C5.95 9.90 7.32 8.76 7.32 6.83C7.32 5.03 5.95 3.78 4.41 3.78L2.94 3.78L2.42 3.78L0.84 3.78L0.84 13.30L2.94 13.30ZM4.06 5.43C4.68 5.43 5.32 5.96 5.32 6.83C5.32 7.74 4.68 8.25 4.06 8.25L2.94 8.25L2.94 5.43ZM10.28 9.48C10.28 9.48 10.35 8.33 11.66 8.33C12.94 8.33 13.03 9.48 13.03 9.48ZM15.05 10.08C15.05 8.11 13.50 6.99 11.62 6.99C9.55 6.99 8.02 8.29 8.02 10.22C8.02 12.18 9.49 13.44 11.62 13.44C13.26 13.44 14.57 12.63 14.94 11.00L12.80 11.00C12.78 11.45 12.32 11.94 11.58 11.94C10.75 11.94 10.25 11.19 10.25 10.47L15.04 10.47C15.04 10.35 15.05 10.21 15.05 10.08ZM19.53 8.62C20.26 8.62 20.72 9.00 20.75 9.60L22.83 9.60C22.74 8.18 21.46 6.99 19.46 6.99C17.40 6.99 16.03 8.46 16.03 10.22C16.03 11.98 17.32 13.44 19.46 13.44C21.34 13.44 22.58 12.38 22.79 11.00L20.75 11.00C20.68 11.56 20.17 11.84 19.53 11.84C18.55 11.84 18.27 10.95 18.27 10.23C18.27 9.53 18.58 8.62 19.53 8.62ZM23.97 10.64C23.97 12.31 24.64 13.44 26.29 13.44C27.10 13.44 27.76 13.08 28.18 12.54L28.18 13.30L30.28 13.30L30.28 7.13L28.18 7.13L28.18 10.22C28.18 11.05 27.66 11.76 27.01 11.76C26.35 11.76 26.07 11.35 26.07 10.64L26.07 7.13L23.97 7.13ZM38.28 9.80C38.28 8.12 37.60 6.99 35.95 6.99C35.14 6.99 34.48 7.35 34.06 7.88L34.06 7.13L31.96 7.13L31.96 13.30L34.06 13.30L34.06 10.22C34.06 9.38 34.58 8.68 35.24 8.68C35.90 8.68 36.18 9.07 36.18 9.80L36.18 13.30L38.28 13.30ZM39.63 5.01C39.63 5.68 40.18 6.24 40.87 6.24C41.54 6.24 42.10 5.68 42.10 5.01C42.10 4.33 41.54 3.78 40.87 3.78C40.18 3.78 39.63 4.33 39.63 5.01ZM41.92 13.30L41.92 7.13L39.82 7.13L39.82 13.30ZM48.50 10.22C48.50 11.03 47.87 11.76 47.03 11.76C46.19 11.76 45.56 11.03 45.56 10.22C45.56 9.41 46.19 8.68 47.03 8.68C47.87 8.68 48.50 9.41 48.50 10.22ZM50.60 7.14L48.50 7.14L48.50 7.88C47.95 7.21 47.17 6.99 46.38 6.99C44.63 6.99 43.32 8.51 43.32 10.22C43.32 11.93 44.63 13.44 46.38 13.44C47.17 13.44 48.08 13.19 48.50 12.56L48.50 13.30L50.60 13.30ZM54.92 8.75L56.04 8.75L56.04 7.13L54.92 7.13L54.92 4.77L52.84 4.77L52.84 7.13L51.72 7.13L51.72 8.75L52.84 8.75L52.84 13.30L54.92 13.30ZM60.34 11.84C59.21 11.84 58.90 11.02 58.90 10.23C58.90 9.46 59.23 8.64 60.34 8.64C61.43 8.64 61.77 9.46 61.77 10.23C61.77 11.02 61.46 11.84 60.34 11.84ZM60.34 7.00C58.41 7.00 56.81 8.29 56.81 10.22C56.81 12.19 58.37 13.43 60.34 13.43C62.30 13.43 63.85 12.19 63.85 10.22C63.85 8.29 62.26 7.00 60.34 7.00ZM68.67 8.68C68.99 8.68 69.30 8.78 69.51 9.03L69.54 9.03L69.54 7.13C69.37 7.04 69.09 6.99 68.91 6.99C68.14 6.99 67.61 7.42 67.28 7.88L67.28 7.13L65.18 7.13L65.18 13.30L67.28 13.30L67.28 10.22C67.28 9.48 67.89 8.68 68.67 8.68Z"></path></g><defs data-v-fde0c5aa=""><linearGradient data-v-fde0c5aa="" gradientTransform="rotate(25)" id="0929afdf-9182-480a-9704-a57ef768f796" x1="0%" y1="0%" x2="100%" y2="0%"><stop data-v-fde0c5aa="" offset="0%" stop-color="#288B58" stop-opacity="1"></stop><stop data-v-fde0c5aa="" offset="100%" stop-color="#1522F1" stop-opacity="1"></stop></linearGradient></defs><g data-v-fde0c5aa="" id="8bd16afc-7a0b-43a3-8722-1d0ffb8034ab" stroke="none" fill="url(#0929afdf-9182-480a-9704-a57ef768f796)" transform="matrix(0.5413850545883179,0,0,0.5413850545883179,38.441893743102305,121.412975987448)"><path d="M52.193 21.983a1 1 0 0 0 1-1v-1.108l-2.142-1.183a2.837 2.837 0 0 0-2.75 0l-7.138 3.943v.271h-.492l-1.82 1.005v2.273a1 1 0 0 0 1 1h1.493c.233 2.293.806 4.107 2.458 5.758 1.881 1.882 4.312 2.877 7.029 2.877 5.086 0 8.786-3.172 9.655-8.277a.997.997 0 0 0-.986-1.168h-3.706c-.464 0-.866.319-.974.77-.301 1.274-1.22 3.412-3.99 3.412-1.114 0-2.1-.412-2.836-1.176-.479-.517-.761-1.018-.924-2.195h5.12a1 1 0 0 0 1-1v-2.278a1 1 0 0 0-1-1h-5.357v-.924h5.36z"></path><path d="M94.296 42.581L55.193 20.98v.003a2.99 2.99 0 0 1-.381 1.462c.242.433.381.932.381 1.462v.528c.195-.04.397-.061.604-.061h3.706a3 3 0 0 1 2.957 3.503c-1.028 6.04-5.592 9.942-11.627 9.942-3.26 0-6.18-1.198-8.443-3.462-1.676-1.674-2.408-3.481-2.766-5.182a3.003 3.003 0 0 1-2.771-2.991v-1.168L4.903 42.667A2.843 2.843 0 0 0 6.278 48h86.81a2.844 2.844 0 0 0 1.208-5.419zM94.982 88.495H92.55v-3.867c0-.825-.67-1.495-1.494-1.495h-4.182V53.814c0-.739-.6-1.339-1.339-1.339h-5.468c-.74 0-1.34.6-1.34 1.339v29.318H67.82V54.065c0-.738-.6-1.339-1.339-1.339h-5.468c-.74 0-1.34.601-1.34 1.339v29.067H39.68V53.814c0-.739-.6-1.339-1.339-1.339h-5.468c-.739 0-1.338.6-1.338 1.339v29.318H20.626V54.065c0-.738-.6-1.339-1.339-1.339h-5.468a1.34 1.34 0 0 0-1.338 1.339v29.067H8.298c-.825 0-1.494.67-1.494 1.495v3.867H4.372c-.825 0-1.494.67-1.494 1.495v4.916c0 .825.668 1.493 1.494 1.493h90.611c.826 0 1.495-.668 1.495-1.493V89.99c0-.825-.669-1.495-1.496-1.495z"></path><path d="M60.268 26.73a1.001 1.001 0 0 0-.765-.355h-3.706c-.464 0-.866.319-.974.77-.301 1.274-1.22 3.412-3.99 3.412-1.114 0-2.1-.412-2.836-1.176-.479-.517-.761-1.018-.924-2.195h5.12a1 1 0 0 0 1-1v-2.278a1 1 0 0 0-1-1h-5.357v-.924h5.357a1 1 0 0 0 1-1v-2.277a1 1 0 0 0-1-1H47.08c.163-1.094.439-1.564.904-2.047.748-.777 1.733-1.188 2.849-1.188 2.741 0 3.655 2.137 3.956 3.412.107.451.51.77.974.77h3.74a1 1 0 0 0 .986-1.168c-.869-5.105-4.569-8.277-9.655-8.277-2.717 0-5.147.995-7.029 2.876-1.633 1.633-2.217 3.454-2.454 5.623h-1.497a1 1 0 0 0-1 1v2.277a1 1 0 0 0 1 1h1.312v.924h-1.312a1 1 0 0 0-1 1v2.278a1 1 0 0 0 1 1h1.493c.233 2.293.806 4.107 2.458 5.758 1.881 1.882 4.312 2.877 7.029 2.877 5.086 0 8.786-3.172 9.655-8.277a1.007 1.007 0 0 0-.221-.815z"></path><path d="M60.268 26.73a1.001 1.001 0 0 0-.765-.355h-3.706c-.464 0-.866.319-.974.77-.301 1.274-1.22 3.412-3.99 3.412-1.114 0-2.1-.412-2.836-1.176-.479-.517-.761-1.018-.924-2.195h5.12a1 1 0 0 0 1-1v-2.278a1 1 0 0 0-1-1h-5.357v-.924h5.357a1 1 0 0 0 1-1v-2.277a1 1 0 0 0-1-1H47.08c.163-1.094.439-1.564.904-2.047.748-.777 1.733-1.188 2.849-1.188 2.741 0 3.655 2.137 3.956 3.412.107.451.51.77.974.77h3.74a1 1 0 0 0 .986-1.168c-.869-5.105-4.569-8.277-9.655-8.277-2.717 0-5.147.995-7.029 2.876-1.633 1.633-2.217 3.454-2.454 5.623h-1.497a1 1 0 0 0-1 1v2.277a1 1 0 0 0 1 1h1.312v.924h-1.312a1 1 0 0 0-1 1v2.278a1 1 0 0 0 1 1h1.493c.233 2.293.806 4.107 2.458 5.758 1.881 1.882 4.312 2.877 7.029 2.877 5.086 0 8.786-3.172 9.655-8.277a1.007 1.007 0 0 0-.221-.815z"></path></g><defs data-v-fde0c5aa=""><!----></defs><g data-v-fde0c5aa="" id="7d64d975-8f2e-4ed0-97ed-68ef69b7e9aa" fill="#000000" transform="matrix(0.24182654917240143,0,0,0.24182654917240143,103.62285854167841,159.61705471269468)"><path d="M7.10 15.68L6.38 13.24L2.18 13.24L1.47 15.68L0.21 15.68L3.18 5.88L5.39 5.88L8.36 15.68L7.10 15.68ZM4.37 6.38L4.20 6.38L2.51 12.15L6.06 12.15L4.37 6.38ZM37.73 9.21L37.73 8.71L37.73 8.71Q37.73 8.23 37.54 7.87L37.54 7.87L37.54 7.87Q37.35 7.50 37.03 7.27L37.03 7.27L37.03 7.27Q36.71 7.03 36.29 6.90L36.29 6.90L36.29 6.90Q35.87 6.78 35.41 6.78L35.41 6.78L35.41 6.78Q35 6.78 34.64 6.88L34.64 6.88L34.64 6.88Q34.27 6.99 33.98 7.18L33.98 7.18L33.98 7.18Q33.70 7.38 33.53 7.66L33.53 7.66L33.53 7.66Q33.36 7.95 33.36 8.33L33.36 8.33L33.36 8.41L33.36 8.41Q33.36 8.82 33.53 9.11L33.53 9.11L33.53 9.11Q33.70 9.39 34.03 9.60L34.03 9.60L34.03 9.60Q34.36 9.80 34.85 9.93L34.85 9.93L34.85 9.93Q35.34 10.07 35.99 10.16L35.99 10.16L35.99 10.16Q37.53 10.40 38.26 11.07L38.26 11.07L38.26 11.07Q38.99 11.73 38.99 12.85L38.99 12.85L38.99 13.02L38.99 13.02Q38.99 13.65 38.77 14.17L38.77 14.17L38.77 14.17Q38.56 14.70 38.13 15.08L38.13 15.08L38.13 15.08Q37.70 15.46 37.07 15.67L37.07 15.67L37.07 15.67Q36.44 15.88 35.62 15.88L35.62 15.88L35.62 15.88Q34.68 15.88 33.96 15.60L33.96 15.60L33.96 15.60Q33.24 15.33 32.75 14.85L32.75 14.85L32.75 14.85Q32.27 14.36 32.02 13.71L32.02 13.71L32.02 13.71Q31.77 13.06 31.77 12.29L31.77 12.29L31.77 11.87L32.94 11.87L32.94 12.21L32.94 12.21Q32.94 13.50 33.65 14.14L33.65 14.14L33.65 14.14Q34.36 14.78 35.62 14.78L35.62 14.78L35.62 14.78Q36.71 14.78 37.26 14.30L37.26 14.30L37.26 14.30Q37.81 13.82 37.81 13.02L37.81 13.02L37.81 12.94L37.81 12.94Q37.81 12.17 37.25 11.76L37.25 11.76L37.25 11.76Q36.68 11.35 35.41 11.17L35.41 11.17L35.41 11.17Q34.66 11.07 34.07 10.87L34.07 10.87L34.07 10.87Q33.47 10.67 33.05 10.34L33.05 10.34L33.05 10.34Q32.63 10.01 32.41 9.55L32.41 9.55L32.41 9.55Q32.19 9.09 32.19 8.46L32.19 8.46L32.19 8.29L32.19 8.29Q32.19 7.71 32.42 7.24L32.42 7.24L32.42 7.24Q32.66 6.76 33.09 6.41L33.09 6.41L33.09 6.41Q33.52 6.06 34.11 5.87L34.11 5.87L34.11 5.87Q34.71 5.68 35.42 5.68L35.42 5.68L35.42 5.68Q36.25 5.68 36.90 5.92L36.90 5.92L36.90 5.92Q37.55 6.16 38.00 6.56L38.00 6.56L38.00 6.56Q38.44 6.96 38.67 7.50L38.67 7.50L38.67 7.50Q38.91 8.04 38.91 8.62L38.91 8.62L38.91 9.21L37.73 9.21ZM47.63 5.88L48.80 5.88L48.80 12.38L48.80 12.38Q48.80 13.57 49.36 14.17L49.36 14.17L49.36 14.17Q49.91 14.78 50.99 14.78L50.99 14.78L50.99 14.78Q52.07 14.78 52.62 14.17L52.62 14.17L52.62 14.17Q53.17 13.57 53.17 12.38L53.17 12.38L53.17 5.88L54.35 5.88L54.35 12.38L54.35 12.38Q54.35 14.08 53.45 14.98L53.45 14.98L53.45 14.98Q52.56 15.88 50.99 15.88L50.99 15.88L50.99 15.88Q49.42 15.88 48.52 14.98L48.52 14.98L48.52 14.98Q47.63 14.08 47.63 12.38L47.63 12.38L47.63 5.88ZM63.45 6.97L63.45 5.88L69.66 5.88L69.66 6.97L67.14 6.97L67.14 14.59L69.66 14.59L69.66 15.68L63.45 15.68L63.45 14.59L65.97 14.59L65.97 6.97L63.45 6.97ZM78.68 6.97L78.68 5.88L85.57 5.88L85.57 6.97L82.71 6.97L82.71 15.68L81.54 15.68L81.54 6.97L78.68 6.97ZM94.72 15.68L94.72 5.88L100.66 5.88L100.66 6.97L95.90 6.97L95.90 10.22L100.58 10.22L100.58 11.31L95.90 11.31L95.90 14.59L100.74 14.59L100.74 15.68L94.72 15.68ZM125.38 11.87L125.38 9.69L125.38 9.69Q125.38 7.78 126.29 6.73L126.29 6.73L126.29 6.73Q127.20 5.68 128.83 5.68L128.83 5.68L128.83 5.68Q130.45 5.68 131.36 6.73L131.36 6.73L131.36 6.73Q132.27 7.78 132.27 9.69L132.27 9.69L132.27 11.87L132.27 11.87Q132.27 13.83 131.36 14.85L131.36 14.85L131.36 14.85Q130.45 15.88 128.83 15.88L128.83 15.88L128.83 15.88Q127.20 15.88 126.29 14.85L126.29 14.85L126.29 14.85Q125.38 13.83 125.38 11.87L125.38 11.87ZM128.83 14.78L128.83 14.78L128.83 14.78Q129.96 14.78 130.53 14.01L130.53 14.01L130.53 14.01Q131.10 13.23 131.10 11.79L131.10 11.79L131.10 9.77L131.10 9.77Q131.10 8.43 130.53 7.60L130.53 7.60L130.53 7.60Q129.96 6.78 128.83 6.78L128.83 6.78L128.83 6.78Q127.69 6.78 127.13 7.60L127.13 7.60L127.13 7.60Q126.56 8.43 126.56 9.77L126.56 9.77L126.56 11.79L126.56 11.79Q126.56 13.23 127.13 14.01L127.13 14.01L127.13 14.01Q127.69 14.78 128.83 14.78ZM141.44 15.68L141.44 5.88L147.46 5.88L147.46 6.97L142.62 6.97L142.62 10.22L147.38 10.22L147.38 11.31L142.62 11.31L142.62 15.68L141.44 15.68ZM172.09 6.97L172.09 5.88L178.98 5.88L178.98 6.97L176.12 6.97L176.12 15.68L174.94 15.68L174.94 6.97L172.09 6.97ZM187.66 11.87L187.66 9.69L187.66 9.69Q187.66 7.78 188.57 6.73L188.57 6.73L188.57 6.73Q189.48 5.68 191.10 5.68L191.10 5.68L191.10 5.68Q192.72 5.68 193.63 6.73L193.63 6.73L193.63 6.73Q194.54 7.78 194.54 9.69L194.54 9.69L194.54 11.87L194.54 11.87Q194.54 13.83 193.63 14.85L193.63 14.85L193.63 14.85Q192.72 15.88 191.10 15.88L191.10 15.88L191.10 15.88Q189.48 15.88 188.57 14.85L188.57 14.85L188.57 14.85Q187.66 13.83 187.66 11.87L187.66 11.87ZM191.10 14.78L191.10 14.78L191.10 14.78Q192.23 14.78 192.80 14.01L192.80 14.01L192.80 14.01Q193.37 13.23 193.37 11.79L193.37 11.79L193.37 9.77L193.37 9.77Q193.37 8.43 192.80 7.60L192.80 7.60L192.80 7.60Q192.23 6.78 191.10 6.78L191.10 6.78L191.10 6.78Q189.97 6.78 189.40 7.60L189.40 7.60L189.40 7.60Q188.83 8.43 188.83 9.77L188.83 9.77L188.83 11.79L188.83 11.79Q188.83 13.23 189.40 14.01L189.40 14.01L189.40 14.01Q189.97 14.78 191.10 14.78ZM203.22 11.87L203.22 9.69L203.22 9.69Q203.22 7.78 204.13 6.73L204.13 6.73L204.13 6.73Q205.04 5.68 206.67 5.68L206.67 5.68L206.67 5.68Q208.29 5.68 209.20 6.73L209.20 6.73L209.20 6.73Q210.11 7.78 210.11 9.69L210.11 9.69L210.11 11.87L210.11 11.87Q210.11 13.83 209.20 14.85L209.20 14.85L209.20 14.85Q208.29 15.88 206.67 15.88L206.67 15.88L206.67 15.88Q205.04 15.88 204.13 14.85L204.13 14.85L204.13 14.85Q203.22 13.83 203.22 11.87L203.22 11.87ZM206.67 14.78L206.67 14.78L206.67 14.78Q207.80 14.78 208.37 14.01L208.37 14.01L208.37 14.01Q208.94 13.23 208.94 11.79L208.94 11.79L208.94 9.77L208.94 9.77Q208.94 8.43 208.37 7.60L208.37 7.60L208.37 7.60Q207.80 6.78 206.67 6.78L206.67 6.78L206.67 6.78Q205.53 6.78 204.97 7.60L204.97 7.60L204.97 7.60Q204.40 8.43 204.40 9.77L204.40 9.77L204.40 11.79L204.40 11.79Q204.40 13.23 204.97 14.01L204.97 14.01L204.97 14.01Q205.53 14.78 206.67 14.78ZM219.17 15.68L219.17 5.88L220.35 5.88L220.35 14.59L225.47 14.59L225.47 15.68L219.17 15.68ZM240.11 9.21L240.11 8.71L240.11 8.71Q240.11 8.23 239.93 7.87L239.93 7.87L239.93 7.87Q239.74 7.50 239.41 7.27L239.41 7.27L239.41 7.27Q239.09 7.03 238.67 6.90L238.67 6.90L238.67 6.90Q238.25 6.78 237.79 6.78L237.79 6.78L237.79 6.78Q237.38 6.78 237.02 6.88L237.02 6.88L237.02 6.88Q236.66 6.99 236.37 7.18L236.37 7.18L236.37 7.18Q236.08 7.38 235.91 7.66L235.91 7.66L235.91 7.66Q235.75 7.95 235.75 8.33L235.75 8.33L235.75 8.41L235.75 8.41Q235.75 8.82 235.91 9.11L235.91 9.11L235.91 9.11Q236.08 9.39 236.41 9.60L236.41 9.60L236.41 9.60Q236.74 9.80 237.23 9.93L237.23 9.93L237.23 9.93Q237.72 10.07 238.38 10.16L238.38 10.16L238.38 10.16Q239.92 10.40 240.65 11.07L240.65 11.07L240.65 11.07Q241.37 11.73 241.37 12.85L241.37 12.85L241.37 13.02L241.37 13.02Q241.37 13.65 241.16 14.17L241.16 14.17L241.16 14.17Q240.94 14.70 240.51 15.08L240.51 15.08L240.51 15.08Q240.09 15.46 239.46 15.67L239.46 15.67L239.46 15.67Q238.83 15.88 238.00 15.88L238.00 15.88L238.00 15.88Q237.06 15.88 236.34 15.60L236.34 15.60L236.34 15.60Q235.62 15.33 235.14 14.85L235.14 14.85L235.14 14.85Q234.65 14.36 234.40 13.71L234.40 13.71L234.40 13.71Q234.15 13.06 234.15 12.29L234.15 12.29L234.15 11.87L235.33 11.87L235.33 12.21L235.33 12.21Q235.33 13.50 236.03 14.14L236.03 14.14L236.03 14.14Q236.74 14.78 238.00 14.78L238.00 14.78L238.00 14.78Q239.09 14.78 239.65 14.30L239.65 14.30L239.65 14.30Q240.20 13.82 240.20 13.02L240.20 13.02L240.20 12.94L240.20 12.94Q240.20 12.17 239.63 11.76L239.63 11.76L239.63 11.76Q239.06 11.35 237.79 11.17L237.79 11.17L237.79 11.17Q237.05 11.07 236.45 10.87L236.45 10.87L236.45 10.87Q235.86 10.67 235.44 10.34L235.44 10.34L235.44 10.34Q235.02 10.01 234.79 9.55L234.79 9.55L234.79 9.55Q234.57 9.09 234.57 8.46L234.57 8.46L234.57 8.29L234.57 8.29Q234.57 7.71 234.81 7.24L234.81 7.24L234.81 7.24Q235.05 6.76 235.47 6.41L235.47 6.41L235.47 6.41Q235.90 6.06 236.50 5.87L236.50 5.87L236.50 5.87Q237.09 5.68 237.80 5.68L237.80 5.68L237.80 5.68Q238.63 5.68 239.28 5.92L239.28 5.92L239.28 5.92Q239.93 6.16 240.38 6.56L240.38 6.56L240.38 6.56Q240.83 6.96 241.06 7.50L241.06 7.50L241.06 7.50Q241.29 8.04 241.29 8.62L241.29 8.62L241.29 9.21L240.11 9.21ZM265.50 6.97L265.50 5.88L272.38 5.88L272.38 6.97L269.53 6.97L269.53 15.68L268.35 15.68L268.35 6.97L265.50 6.97ZM281.06 11.87L281.06 9.69L281.06 9.69Q281.06 7.78 281.97 6.73L281.97 6.73L281.97 6.73Q282.88 5.68 284.51 5.68L284.51 5.68L284.51 5.68Q286.13 5.68 287.04 6.73L287.04 6.73L287.04 6.73Q287.95 7.78 287.95 9.69L287.95 9.69L287.95 11.87L287.95 11.87Q287.95 13.83 287.04 14.85L287.04 14.85L287.04 14.85Q286.13 15.88 284.51 15.88L284.51 15.88L284.51 15.88Q282.88 15.88 281.97 14.85L281.97 14.85L281.97 14.85Q281.06 13.83 281.06 11.87L281.06 11.87ZM284.51 14.78L284.51 14.78L284.51 14.78Q285.64 14.78 286.21 14.01L286.21 14.01L286.21 14.01Q286.78 13.23 286.78 11.79L286.78 11.79L286.78 9.77L286.78 9.77Q286.78 8.43 286.21 7.60L286.21 7.60L286.21 7.60Q285.64 6.78 284.51 6.78L284.51 6.78L284.51 6.78Q283.37 6.78 282.81 7.60L282.81 7.60L282.81 7.60Q282.24 8.43 282.24 9.77L282.24 9.77L282.24 11.79L282.24 11.79Q282.24 13.23 282.81 14.01L282.81 14.01L282.81 14.01Q283.37 14.78 284.51 14.78ZM319.77 5.88L318.78 15.68L316.64 15.68L315.73 6.38L315.56 6.38L314.65 15.68L312.51 15.68L311.51 5.88L312.58 5.88L313.52 15.18L313.68 15.18L314.57 5.88L316.72 5.88L317.60 15.18L317.77 15.18L318.71 5.88L319.77 5.88ZM327.77 11.87L327.77 9.69L327.77 9.69Q327.77 7.78 328.68 6.73L328.68 6.73L328.68 6.73Q329.59 5.68 331.21 5.68L331.21 5.68L331.21 5.68Q332.84 5.68 333.75 6.73L333.75 6.73L333.75 6.73Q334.66 7.78 334.66 9.69L334.66 9.69L334.66 11.87L334.66 11.87Q334.66 13.83 333.75 14.85L333.75 14.85L333.75 14.85Q332.84 15.88 331.21 15.88L331.21 15.88L331.21 15.88Q329.59 15.88 328.68 14.85L328.68 14.85L328.68 14.85Q327.77 13.83 327.77 11.87L327.77 11.87ZM331.21 14.78L331.21 14.78L331.21 14.78Q332.35 14.78 332.91 14.01L332.91 14.01L332.91 14.01Q333.48 13.23 333.48 11.79L333.48 11.79L333.48 9.77L333.48 9.77Q333.48 8.43 332.91 7.60L332.91 7.60L332.91 7.60Q332.35 6.78 331.21 6.78L331.21 6.78L331.21 6.78Q330.08 6.78 329.51 7.60L329.51 7.60L329.51 7.60Q328.94 8.43 328.94 9.77L328.94 9.77L328.94 11.79L328.94 11.79Q328.94 13.23 329.51 14.01L329.51 14.01L329.51 14.01Q330.08 14.78 331.21 14.78ZM349.85 12.15L349.85 15.68L348.67 15.68L348.67 12.40L348.67 12.40Q348.67 12.04 348.50 11.84L348.50 11.84L348.50 11.84Q348.33 11.65 347.91 11.65L347.91 11.65L344.86 11.65L344.86 15.68L343.69 15.68L343.69 5.88L347.19 5.88L347.19 5.88Q347.94 5.88 348.50 6.10L348.50 6.10L348.50 6.10Q349.06 6.31 349.43 6.68L349.43 6.68L349.43 6.68Q349.80 7.04 349.99 7.53L349.99 7.53L349.99 7.53Q350.18 8.01 350.18 8.54L350.18 8.54L350.18 8.96L350.18 8.96Q350.18 9.51 349.88 10.05L349.88 10.05L349.88 10.05Q349.58 10.60 348.95 10.89L348.95 10.89L348.95 11.06L348.95 11.06Q349.37 11.13 349.61 11.40L349.61 11.40L349.61 11.40Q349.85 11.66 349.85 12.15L349.85 12.15ZM344.86 6.97L344.86 10.56L347.05 10.56L347.05 10.56Q348.04 10.56 348.52 10.13L348.52 10.13L348.52 10.13Q349.01 9.70 349.01 8.88L349.01 8.88L349.01 8.62L349.01 8.62Q349.01 7.88 348.52 7.43L348.52 7.43L348.52 7.43Q348.04 6.97 347.05 6.97L347.05 6.97L344.86 6.97ZM360.49 11.31L360.49 15.68L359.31 15.68L359.31 5.88L360.49 5.88L360.49 10.22L360.81 10.22L364.57 5.88L366.03 5.88L366.03 5.96L361.97 10.70L361.97 10.86L366.20 15.60L366.20 15.68L364.71 15.68L360.81 11.31L360.49 11.31ZM397.61 5.88L396.62 15.68L394.48 15.68L393.57 6.38L393.40 6.38L392.49 15.68L390.35 15.68L389.35 5.88L390.42 5.88L391.36 15.18L391.52 15.18L392.41 5.88L394.56 5.88L395.44 15.18L395.61 15.18L396.55 5.88L397.61 5.88ZM405.94 6.97L405.94 5.88L412.16 5.88L412.16 6.97L409.64 6.97L409.64 14.59L412.16 14.59L412.16 15.68L405.94 15.68L405.94 14.59L408.46 14.59L408.46 6.97L405.94 6.97ZM421.18 6.97L421.18 5.88L428.06 5.88L428.06 6.97L425.21 6.97L425.21 15.68L424.03 15.68L424.03 6.97L421.18 6.97ZM436.93 15.68L436.93 5.88L438.10 5.88L438.10 10.22L442.27 10.22L442.27 5.88L443.45 5.88L443.45 15.68L442.27 15.68L442.27 11.31L438.10 11.31L438.10 15.68L436.93 15.68ZM467.84 15.68L467.84 14.59L468.68 14.59L468.68 6.97L467.84 6.97L467.84 5.88L471.80 5.88L471.80 5.88Q472.50 5.88 473.04 6.08L473.04 6.08L473.04 6.08Q473.58 6.27 473.95 6.61L473.95 6.61L473.95 6.61Q474.32 6.94 474.51 7.41L474.51 7.41L474.51 7.41Q474.70 7.88 474.70 8.43L474.70 8.43L474.70 8.60L474.70 8.60Q474.70 9.00 474.57 9.34L474.57 9.34L474.57 9.34Q474.45 9.67 474.22 9.94L474.22 9.94L474.22 9.94Q474.00 10.21 473.70 10.39L473.70 10.39L473.70 10.39Q473.40 10.58 473.05 10.68L473.05 10.68L473.05 10.85L473.05 10.85Q473.75 11.05 474.22 11.60L474.22 11.60L474.22 11.60Q474.70 12.15 474.70 12.95L474.70 12.95L474.70 13.12L474.70 13.12Q474.70 13.66 474.51 14.13L474.51 14.13L474.51 14.13Q474.32 14.60 473.95 14.95L473.95 14.95L473.95 14.95Q473.58 15.29 473.04 15.48L473.04 15.48L473.04 15.48Q472.50 15.68 471.80 15.68L471.80 15.68L467.84 15.68ZM469.85 11.31L469.85 14.59L471.72 14.59L471.72 14.59Q472.54 14.59 473.06 14.17L473.06 14.17L473.06 14.17Q473.58 13.76 473.58 13.03L473.58 13.03L473.58 12.95L473.58 12.95Q473.58 12.19 473.09 11.75L473.09 11.75L473.09 11.75Q472.60 11.31 471.76 11.31L471.76 11.31L469.85 11.31ZM469.85 6.97L469.85 10.22L471.76 10.22L471.76 10.22Q472.60 10.22 473.09 9.79L473.09 9.79L473.09 9.79Q473.58 9.35 473.58 8.60L473.58 8.60L473.58 8.51L473.58 8.51Q473.58 7.80 473.06 7.38L473.06 7.38L473.06 7.38Q472.54 6.97 471.72 6.97L471.72 6.97L469.85 6.97ZM489.71 15.68L488.99 13.24L484.79 13.24L484.08 15.68L482.82 15.68L485.79 5.88L488.00 5.88L490.97 15.68L489.71 15.68ZM486.98 6.38L486.81 6.38L485.11 12.15L488.67 12.15L486.98 6.38ZM501.55 5.88L504.38 15.18L504.55 15.18L504.55 5.88L505.72 5.88L505.72 15.68L503.37 15.68L500.54 6.38L500.37 6.38L500.37 15.68L499.20 15.68L499.20 5.88L501.55 5.88ZM516.17 11.31L516.17 15.68L514.99 15.68L514.99 5.88L516.17 5.88L516.17 10.22L516.49 10.22L520.25 5.88L521.71 5.88L521.71 5.96L517.65 10.70L517.65 10.86L521.88 15.60L521.88 15.68L520.39 15.68L516.49 11.31L516.17 11.31ZM530.49 6.97L530.49 5.88L536.70 5.88L536.70 6.97L534.18 6.97L534.18 14.59L536.70 14.59L536.70 15.68L530.49 15.68L530.49 14.59L533.01 14.59L533.01 6.97L530.49 6.97ZM548.25 5.88L551.08 15.18L551.25 15.18L551.25 5.88L552.43 5.88L552.43 15.68L550.07 15.68L547.25 6.38L547.08 6.38L547.08 15.68L545.90 15.68L545.90 5.88L548.25 5.88ZM563.79 12.07L563.79 10.98L568.16 10.98L568.16 15.68L567.07 15.68L567.07 14.50L566.90 14.50L566.90 14.50Q566.66 15.12 566.06 15.50L566.06 15.50L566.06 15.50Q565.46 15.88 564.66 15.88L564.66 15.88L564.66 15.88Q563.08 15.88 562.18 14.85L562.18 14.85L562.18 14.85Q561.27 13.83 561.27 11.87L561.27 11.87L561.27 9.69L561.27 9.69Q561.27 7.78 562.18 6.73L562.18 6.73L562.18 6.73Q563.09 5.68 564.72 5.68L564.72 5.68L564.72 5.68Q565.56 5.68 566.20 5.96L566.20 5.96L566.20 5.96Q566.85 6.23 567.28 6.71L567.28 6.71L567.28 6.71Q567.71 7.20 567.94 7.85L567.94 7.85L567.94 7.85Q568.16 8.50 568.16 9.24L568.16 9.24L568.16 9.41L566.99 9.41L566.99 9.24L566.99 9.24Q566.99 8.76 566.85 8.32L566.85 8.32L566.85 8.32Q566.72 7.87 566.45 7.53L566.45 7.53L566.45 7.53Q566.17 7.18 565.75 6.98L565.75 6.98L565.75 6.98Q565.32 6.78 564.72 6.78L564.72 6.78L564.72 6.78Q563.58 6.78 563.02 7.60L563.02 7.60L563.02 7.60Q562.45 8.43 562.45 9.77L562.45 9.77L562.45 11.79L562.45 11.79Q562.45 13.23 563.02 14.01L563.02 14.01L563.02 14.01Q563.58 14.78 564.75 14.78L564.75 14.78L564.75 14.78Q565.80 14.78 566.39 14.11L566.39 14.11L566.39 14.11Q566.99 13.44 566.99 12.24L566.99 12.24L566.99 12.07L563.79 12.07ZM592.61 6.97L592.61 5.88L595.83 5.88L595.83 5.88Q597.65 5.88 598.49 6.75L598.49 6.75L598.49 6.75Q599.33 7.62 599.33 9.52L599.33 9.52L599.33 12.04L599.33 12.04Q599.33 13.94 598.49 14.81L598.49 14.81L598.49 14.81Q597.65 15.68 595.83 15.68L595.83 15.68L592.61 15.68L592.61 14.57L593.45 14.57L593.45 6.97L592.61 6.97ZM594.62 14.59L595.66 14.59L595.66 14.59Q596.30 14.59 596.77 14.46L596.77 14.46L596.77 14.46Q597.24 14.34 597.55 14.04L597.55 14.04L597.55 14.04Q597.86 13.73 598.00 13.23L598.00 13.23L598.00 13.23Q598.15 12.73 598.15 11.96L598.15 11.96L598.15 9.60L598.15 9.60Q598.15 8.83 598.00 8.33L598.00 8.33L598.00 8.33Q597.86 7.83 597.55 7.53L597.55 7.53L597.55 7.53Q597.24 7.22 596.77 7.10L596.77 7.10L596.77 7.10Q596.30 6.97 595.66 6.97L595.66 6.97L594.62 6.97L594.62 14.59ZM614.25 15.68L613.54 13.24L609.34 13.24L608.62 15.68L607.36 15.68L610.33 5.88L612.54 5.88L615.51 15.68L614.25 15.68ZM611.52 6.38L611.35 6.38L609.66 12.15L613.21 12.15L611.52 6.38ZM623.56 6.97L623.56 5.88L630.45 5.88L630.45 6.97L627.59 6.97L627.59 15.68L626.42 15.68L626.42 6.97L623.56 6.97ZM645.39 15.68L644.67 13.24L640.47 13.24L639.76 15.68L638.50 15.68L641.47 5.88L643.68 5.88L646.65 15.68L645.39 15.68ZM642.66 6.38L642.49 6.38L640.79 12.15L644.35 12.15L642.66 6.38Z"></path></g></svg>